<svg
    xmlns="http://www.w3.org/2000/svg"
    viewBox="0 0 108 108"
    id="vector">
    <rect width="100%" height="100%" fill="#B07755" />
    <g
        id="group_1"
        transform="translate(26.724707 34.3491) scale(0.19925134 0.19925134)">
        <g
            id="group"
            transform="translate(0 150.89062)">
            <path
                id="path"
                d="M 71.094 -50 L 21.797 -50 L 21.797 -7.156 L 78.266 -7.156 L 78.266 0 L 13.438 0 L 13.438 -103 L 77.906 -103 L 77.906 -95.781 L 21.797 -95.781 L 21.797 -57.219 L 71.094 -57.219 L 71.094 -50 Z"
                fill="#363636"/>
            <path
                id="path_1"
                d="M 118.859 -48 L 104.797 -48 L 104.797 0.5 L 96.438 0.5 L 96.438 -102.5 L 104.797 -102.5 L 104.797 -55.156 L 118.797 -55.156 L 159.078 -102.5 L 168.578 -102.5 L 168.719 -102.141 L 126.391 -51.891 L 171.734 0.5 L 171.594 0.5 L 161.609 0.5 L 118.859 -48 Z"
                fill="#363636"/>
            <path
                id="path_2"
                d="M 217.188 -17.406 L 219.234 -10.547 L 219.656 -10.547 L 221.688 -17.406 L 252.422 -103 L 261.563 -103 L 223.375 0 L 215.438 0 L 177.25 -103 L 186.391 -103 L 217.188 -17.406 Z"
                fill="#363636"/>
                
        </g>
    </g>

</svg>
